<?xml version="1.0" ?><svg enable-background="new 0 0 64 64" id="Layer_1" version="1.1" viewBox="0 0 64 64" xml:space="preserve" xmlns="http://www.w3.org/2000/svg" xmlns:xlink="http://www.w3.org/1999/xlink"><g><g><path d="M60.7,2.7c0.4,0,0.7,0.3,0.7,0.7v57.3c0,0.4-0.3,0.7-0.7,0.7H3.3c-0.4,0-0.7-0.3-0.7-0.7V3.3    c0-0.4,0.3-0.7,0.7-0.7H60.7 M60.7,0.2H3.3c-1.8,0-3.2,1.4-3.2,3.2v57.3c0,1.8,1.4,3.2,3.2,3.2h57.5c1.8,0,3.2-1.4,3.2-3.2V3.3    C63.9,1.6,62.5,0.2,60.7,0.2L60.7,0.2z" fill="#20293B"/></g><path d="M10.9,1.9v14.6   c0,1.5,1.2,2.7,2.7,2.7h36.9c1.5,0,2.7-1.2,2.7-2.7V1.9H10.9z" fill="none" stroke="#20293B" stroke-linejoin="round" stroke-miterlimit="10" stroke-width="1.5"/><path d="M57.1,61.7H6.9V38.5   c0-4.4,3.6-8,8-8h34.2c4.4,0,8,3.6,8,8V61.7z" fill="none" stroke="#20293B" stroke-linejoin="round" stroke-miterlimit="10" stroke-width="1.5"/><path d="M18.2,1.9v17.4h28.9V1.9H18.2z M43.4,14.3c0,0.8-0.7,1.5-1.5,1.5h-3.5c-0.8,0-1.5-0.7-1.5-1.5V2.4h6.5V14.3   z" fill="#20293B"/><line fill="none" stroke="#20293B" stroke-linejoin="round" stroke-miterlimit="10" stroke-width="1.5" x1="15.4" x2="48.6" y1="40.7" y2="40.7"/><line fill="none" stroke="#20293B" stroke-linejoin="round" stroke-miterlimit="10" stroke-width="1.5" x1="15.4" x2="48.6" y1="47.1" y2="47.1"/></g></svg>